<svg version="1.2" xmlns="http://www.w3.org/2000/svg" viewBox="0 0 1753 269" width="1753" height="269">
	<title>New Project (2) (3) (3)</title>
	<style>
		.s0 { fill: #333333 } 
		.s1 { fill: #515357 } 
	</style>
	<path id="b" class="s0" d="m5.1 262h52.2v-30.6h2.4c7.3 15.9 23.4 33.7 54.2 33.7 43.5 0 77.4-34.4 77.4-98.3 0-65.6-35.4-98.2-77.3-98.2-31.9 0-47.2 19-54.3 34.6h-1.6v-95.7h-53zm51.9-95.5c0-34.1 14.4-55.8 40.1-55.8 26.2 0 40.1 22.7 40.1 55.8 0 33.3-14.1 56.4-40.1 56.4-25.5 0-40.1-22.3-40.1-56.4z"/>
	<path id="_" class="s0" d="m361.9 222h-167.1v40.1h167.1z"/>
	<path id="byword explained" class="s1" aria-label="byword explained"  d="m567.2 180h14.5v-11.9h1.2c2.7 4.9 8.2 13.4 22.1 13.4 18.5 0 31.9-14.8 31.9-39.5 0-24.8-13.6-39.4-32-39.4-14.2 0-19.3 8.7-22 13.4h-0.8v-37.8h-14.9zm14.6-38.2c0-16 6.9-26.5 19.9-26.5 13.5 0 20.2 11.3 20.2 26.5 0 15.3-6.9 27-20.2 27-12.8 0-19.9-10.9-19.9-27zm78.5 66.8c12.3 0 20-6.4 24.5-18.4l31.4-86.6h-15.9l-19.4 59.3h-0.8l-19.3-59.3h-15.9l27.9 77.4-1.8 5c-3.8 10.2-9.1 11-17.3 8.8l-3.5 12.2c1.8 0.8 5.6 1.6 10.1 1.6zm86.5-28.6h15.1l15.5-55.2h1.1l15.5 55.2h15.2l22.4-76.4h-15.3l-14.9 55.8h-0.7l-15-55.8h-15.3l-15 56.1h-0.8l-14.9-56.1h-15.4zm128.8 1.6c21.5 0 35.5-15.8 35.5-39.4 0-23.8-14-39.5-35.5-39.5-21.6 0-35.6 15.7-35.6 39.5 0 23.6 14 39.4 35.6 39.4zm0-12.5c-14.1 0-20.6-12.3-20.6-27 0-14.6 6.5-27 20.6-27 14 0 20.5 12.4 20.5 27 0 14.7-6.5 27-20.5 27zm52.1 10.9h14.9v-46.6c0-10 7.7-17.2 18.2-17.2 3.1 0 6.6 0.5 7.8 0.9v-14.2c-1.5-0.2-4.5-0.4-6.3-0.4-9 0-16.6 5.1-19.4 13.3h-0.8v-12.1h-14.4zm79.6 1.4c13.9 0 19.4-8.5 22.1-13.3h1.2v11.9h14.5v-101.9h-14.8v37.9h-0.9c-2.7-4.8-7.8-13.4-22-13.4-18.4 0-32 14.6-32 39.3 0 24.7 13.4 39.5 31.9 39.5zm3.3-12.6c-13.3 0-20.2-11.7-20.2-27 0-15.2 6.8-26.6 20.2-26.6 13 0 19.9 10.6 19.9 26.6 0 16-7.1 27-19.9 27zm125.7 12.7c16.7 0 28.4-8.2 31.8-20.6l-14-2.6c-2.7 7.2-9.2 10.9-17.6 10.9-12.8 0-21.3-8.2-21.7-23h54.3v-5.2c0-27.6-16.5-38.4-33.8-38.4-21.3 0-35.3 16.2-35.3 39.7 0 23.7 13.8 39.2 36.3 39.2zm-21.5-46.4c0.6-10.8 8.5-20.2 20.6-20.2 11.5 0 19.1 8.5 19.1 20.2zm80.8-31.5h-16.3l23.5 38.2-23.8 38.2h16.3l17.2-28.6 17.2 28.6h16.2l-24-38.2 23.8-38.2h-16.2l-17 29.7zm65.4 105h14.8v-40.5h0.9c2.7 4.9 8.2 13.4 22.1 13.4 18.5 0 31.9-14.8 31.9-39.5 0-24.8-13.6-39.4-32-39.4-14.2 0-19.3 8.7-22 13.4h-1.2v-12.4h-14.5zm14.5-66.8c0-16 7-26.5 20-26.5 13.5 0 20.2 11.3 20.2 26.5 0 15.3-6.9 27-20.2 27-12.8 0-20-10.9-20-27zm86.7-63.6h-14.8v101.8h14.8zm42.3 103.5c12.6 0 19.7-6.4 22.5-12.1h0.6v10.4h14.5v-50.7c0-22.2-17.5-26.7-29.6-26.7-13.8 0-26.5 5.6-31.5 19.5l14 3.2c2.1-5.4 7.7-10.6 17.7-10.6 9.6 0 14.5 5 14.5 13.6v0.4c0 5.4-5.5 5.3-19.3 6.9-14.4 1.7-29.2 5.5-29.2 22.8 0 15 11.2 23.3 25.8 23.3zm3.2-11.9c-8.4 0-14.5-3.8-14.5-11.2 0-7.9 7.1-10.8 15.7-11.9 4.8-0.7 16.2-1.9 18.4-4.1v9.9c0 9-7.2 17.3-19.6 17.3zm54.2 10.2h14.9v-76.4h-14.9zm7.5-88.1c5.2 0 9.4-4 9.4-8.9 0-4.8-4.2-8.9-9.4-8.9-5.1 0-9.4 4.1-9.4 8.9 0 4.9 4.3 8.9 9.4 8.9zm42.2 42.8c0-12.2 7.5-19.1 17.8-19.1 10.1 0 16.3 6.6 16.3 17.7v46.7h14.8v-48.5c0-18.9-10.4-28.8-26-28.8-11.5 0-19 5.3-22.5 13.4h-1v-12.4h-14.2v76.3h14.8zm101.7 46.9c16.7 0 28.5-8.2 31.8-20.6l-14-2.5c-2.7 7.2-9.2 10.8-17.6 10.8-12.8 0-21.3-8.2-21.7-22.9h54.3v-5.3c0-27.6-16.5-38.4-33.8-38.4-21.3 0-35.3 16.2-35.3 39.7 0 23.7 13.8 39.2 36.3 39.2zm-21.5-46.4c0.6-10.8 8.5-20.2 20.6-20.2 11.5 0 19.1 8.6 19.1 20.2zm99.4 46.4c13.9 0 19.4-8.5 22.1-13.4h1.2v11.9h14.5v-101.8h-14.8v37.8h-0.9c-2.7-4.7-7.8-13.4-22-13.4-18.5 0-32 14.6-32 39.3 0 24.8 13.3 39.6 31.9 39.6zm3.3-12.7c-13.3 0-20.2-11.7-20.2-27 0-15.2 6.7-26.5 20.2-26.5 12.9 0 19.9 10.5 19.9 26.5 0 16.1-7.1 27-19.9 27z"/>
</svg>