<svg version="1.2" xmlns="http://www.w3.org/2000/svg" viewBox="0 0 1849 269" width="1849" height="269">
	<title>New Project (2) (3) (3)</title>
	<style>
		.s0 { fill: #333333 } 
		.s1 { fill: #515357 } 
	</style>
	<path id="b" class="s0" d="m5.1 262h52.2v-30.6h2.4c7.3 15.9 23.4 33.7 54.2 33.7 43.5 0 77.4-34.4 77.4-98.3 0-65.6-35.4-98.2-77.3-98.2-31.9 0-47.2 19-54.3 34.6h-1.6v-95.7h-53zm51.9-95.5c0-34.1 14.4-55.8 40.1-55.8 26.2 0 40.1 22.7 40.1 55.8 0 33.3-14.1 56.4-40.1 56.4-25.5 0-40.1-22.3-40.1-56.4z"/>
	<path id="_" class="s0" d="m361.9 222h-167.1v40.1h167.1z"/>
	<path id="byword explained" class="s1" aria-label="byword explained"  d="m457.1 191h17v-13.9h1.5c3.1 5.7 9.5 15.6 25.8 15.6 21.7 0 37.4-17.3 37.4-46.3 0-29-15.9-46-37.6-46-16.5 0-22.5 10.1-25.6 15.6h-1.1v-44.3h-17.4zm17.1-44.7c0-18.7 8.1-31.1 23.3-31.1 15.8 0 23.7 13.3 23.7 31.1 0 17.9-8.1 31.6-23.7 31.6-14.9 0-23.3-12.8-23.3-31.6zm92 78.3c14.4 0 23.5-7.5 28.6-21.6l36.9-101.4h-18.7l-22.6 69.4h-1l-22.6-69.4h-18.7l32.8 90.6-2.2 5.9c-4.4 11.9-10.7 12.9-20.2 10.3l-4.2 14.3c2.1 0.9 6.6 1.9 11.9 1.9zm101.3-33.6h17.7l18.1-64.6h1.4l18.1 64.6h17.8l26.3-89.4h-18l-17.4 65.4h-0.9l-17.5-65.4h-18l-17.6 65.7h-0.8l-17.6-65.7h-18zm150.9 1.8c25.2 0 41.7-18.5 41.7-46.1 0-27.9-16.5-46.3-41.7-46.3-25.2 0-41.7 18.4-41.7 46.3 0 27.6 16.5 46.1 41.7 46.1zm0-14.6c-16.4 0-24.1-14.4-24.1-31.6 0-17.1 7.7-31.7 24.1-31.7 16.4 0 24.1 14.6 24.1 31.7 0 17.2-7.7 31.6-24.1 31.6zm61.1 12.8h17.4v-54.7c0-11.7 9-20.1 21.4-20.1 3.6 0 7.6 0.6 9 1v-16.6c-1.7-0.2-5.1-0.4-7.4-0.4-10.4 0-19.4 5.9-22.7 15.5h-0.9v-14.2h-16.8zm93.2 1.8c16.3 0 22.7-10 25.9-15.7h1.4v13.9h17v-119.3h-17.4v44.4h-1c-3.2-5.6-9.1-15.7-25.8-15.7-21.6 0-37.5 17.1-37.5 46.1 0 28.9 15.7 46.3 37.4 46.3zm3.9-14.9c-15.6 0-23.7-13.7-23.7-31.6 0-17.8 7.9-31.1 23.7-31.1 15.2 0 23.3 12.4 23.3 31.1 0 18.8-8.3 31.6-23.3 31.6zm147.2 14.9c19.5 0 33.4-9.6 37.3-24.1l-16.5-3c-3.1 8.4-10.7 12.7-20.6 12.7-14.9 0-24.9-9.6-25.4-26.9h63.6v-6.1c0-32.4-19.3-45-39.6-45-24.9 0-41.3 19-41.3 46.5 0 27.8 16.2 45.9 42.5 45.9zm-25.1-54.3c0.7-12.7 9.9-23.7 24-23.7 13.5 0 22.4 10 22.5 23.7zm94.6-36.9h-19.1l27.5 44.7-27.9 44.7h19.1l20.1-33.4 20.2 33.4h19l-28.1-44.7 27.9-44.7h-19l-20 34.8zm76.7 123h17.4v-47.5h1c3.2 5.7 9.6 15.7 25.9 15.7 21.7 0 37.4-17.4 37.4-46.3 0-29-16-46.1-37.6-46.1-16.6 0-22.6 10.2-25.7 15.7h-1.4v-14.5h-17zm17-78.3c0-18.7 8.2-31.1 23.4-31.1 15.8 0 23.7 13.4 23.7 31.1 0 18-8.2 31.6-23.7 31.6-15 0-23.4-12.8-23.4-31.6zm101.6-74.5h-17.4v119.2h17.4zm49.5 121.3c14.7 0 23.1-7.5 26.4-14.2h0.7v12.2h17v-59.4c0-26-20.5-31.2-34.7-31.2-16.2 0-31.1 6.5-36.9 22.8l16.3 3.8c2.6-6.4 9.1-12.5 20.8-12.5 11.3 0 17 5.9 17 16v0.4c0 6.4-6.5 6.2-22.6 8.1-16.9 2-34.3 6.4-34.3 26.7 0 17.6 13.2 27.3 30.3 27.3zm3.7-14c-9.8 0-16.9-4.4-16.9-13 0-9.3 8.3-12.7 18.3-14 5.7-0.8 19.1-2.3 21.6-4.8v11.6c0 10.6-8.5 20.2-23 20.2zm63.6 12h17.4v-89.4h-17.4zm8.8-103.3c6 0 11-4.7 11-10.4 0-5.7-5-10.4-11-10.4-6.1 0-11 4.7-11 10.4 0 5.7 4.9 10.4 11 10.4zm49.4 50.1c0-14.2 8.8-22.4 20.9-22.4 11.8 0 19 7.8 19 20.8v54.8h17.4v-56.9c0-22.2-12.2-33.8-30.5-33.8-13.4 0-22.2 6.3-26.4 15.8h-1.1v-14.6h-16.7v89.5h17.4zm119.1 54.9c19.5 0 33.3-9.6 37.3-24.2l-16.5-3c-3.1 8.5-10.7 12.8-20.6 12.8-14.9 0-24.9-9.7-25.4-26.9h63.6v-6.2c0-32.3-19.3-44.9-39.6-44.9-24.9 0-41.4 18.9-41.4 46.4 0 27.8 16.2 46 42.6 46zm-25.1-54.4c0.7-12.7 9.9-23.7 24-23.7 13.5 0 22.4 10.1 22.4 23.7zm116.4 54.3c16.4 0 22.8-9.9 25.9-15.6h1.5v13.9h17v-119.3h-17.4v44.3h-1.1c-3.1-5.5-9.1-15.6-25.7-15.6-21.6 0-37.5 17-37.5 46 0 29 15.6 46.3 37.3 46.3zm3.9-14.8c-15.6 0-23.7-13.7-23.7-31.7 0-17.7 8-31 23.7-31 15.2 0 23.3 12.4 23.3 31 0 18.9-8.3 31.7-23.3 31.7z"/>
</svg>