<svg version="1.2" xmlns="http://www.w3.org/2000/svg" viewBox="0 0 365 365" width="365" height="365">
	<title>New Project (2) (3)</title>
	<style>
		.s0 { fill: #333333 } 
	</style>
	<path id="b" class="s0" d="m3.1 314h52.2v-30.6h2.4c7.3 15.9 23.4 33.7 54.2 33.7 43.5 0 77.4-34.4 77.4-98.3 0-65.6-35.4-98.2-77.3-98.2-31.9 0-47.2 19-54.3 34.6h-1.6v-95.7h-53zm51.9-95.5c0-34.1 14.4-55.8 40.1-55.8 26.2 0 40.1 22.7 40.1 55.8 0 33.3-14.1 56.4-40.1 56.4-25.5 0-40.1-22.3-40.1-56.4z"/>
	<path id="_" class="s0" d="m359.9 274h-167.1v40.1h167.1z"/>
</svg>